<svg aria-hidden="true" style="position: absolute; width: 0; height: 0; overflow: hidden;" version="1.1" xmlns="http://www.w3.org/2000/svg" xmlns:xlink="http://www.w3.org/1999/xlink">
<defs>
<symbol id="icon-like" viewBox="0 0 32 32">
<path d="M16 28.72c-0.002 0-0.005 0-0.007 0-0.829 0-1.58-0.336-2.123-0.88l-10.3-10.3c-1.558-1.575-2.521-3.741-2.521-6.133 0-0.041 0-0.083 0.001-0.124l-0 0.006c0.034-4.426 3.629-8 8.060-8 0.028 0 0.056 0 0.085 0l-0.004-0c0.024-0 0.053-0 0.081-0 2.24 0 4.267 0.914 5.728 2.39l1.001 1.001 0.82-0.82c1.526-1.565 3.654-2.535 6.010-2.535 1.879 0 3.614 0.618 5.012 1.661l-0.022-0.016c1.964 1.523 3.216 3.884 3.216 6.536 0 2.273-0.919 4.332-2.407 5.824l-10.5 10.51c-0.543 0.544-1.294 0.88-2.123 0.88-0.003 0-0.005 0-0.008 0h0zM9.15 5.28c-0.002 0-0.004 0-0.006 0-1.654 0-3.154 0.656-4.255 1.722l0.002-0.002c-1.135 1.093-1.84 2.626-1.84 4.324 0 0.002 0 0.004 0 0.007v-0c-0 0.020-0 0.043-0 0.066 0 1.847 0.745 3.519 1.951 4.734l10.3 10.3c0.181 0.183 0.432 0.296 0.71 0.296s0.529-0.113 0.71-0.296l10.51-10.52c1.104-1.126 1.785-2.67 1.785-4.373 0-0.15-0.005-0.299-0.016-0.447l0.001 0.020c-0.115-1.86-1.036-3.483-2.415-4.539l-0.015-0.011c-1.043-0.776-2.357-1.243-3.78-1.243-1.802 0-3.429 0.748-4.588 1.951l-0.002 0.002-1.49 1.53c-0.181 0.183-0.432 0.296-0.71 0.296s-0.529-0.113-0.71-0.296l-1.7-1.7c-1.13-1.12-2.683-1.814-4.399-1.82h-0.001z"></path>
</symbol>
<symbol id="icon-views" viewBox="0 0 32 32">
<path d="M31.879 15.443c-2.621-5.695-8.545-11.443-15.879-11.443s-13.257 5.748-15.879 11.443c-0.076 0.164-0.121 0.355-0.121 0.557s0.045 0.394 0.124 0.566l-0.003-0.008c2.621 5.695 8.545 11.443 15.879 11.443s13.257-5.748 15.879-11.443c0.076-0.164 0.121-0.355 0.121-0.557s-0.045-0.394-0.124-0.566l0.003 0.008zM16 25.333c-5.881 0-10.861-4.736-13.187-9.333 2.325-4.597 7.305-9.333 13.187-9.333s10.861 4.736 13.187 9.333c-2.325 4.597-7.305 9.333-13.187 9.333z"></path>
<path d="M16 9.333c-3.682 0-6.667 2.985-6.667 6.667s2.985 6.667 6.667 6.667c3.682 0 6.667-2.985 6.667-6.667v0c-0.005-3.68-2.987-6.662-6.666-6.667h-0zM16 20c-2.209 0-4-1.791-4-4s1.791-4 4-4c2.209 0 4 1.791 4 4v0c0 2.209-1.791 4-4 4v0z"></path>
</symbol>
<symbol id="icon-downloads" viewBox="0 0 30 32">
<path d="M24.024 27.564c0.63 0 1.139-0.509 1.139-1.139v-7.055h2.715v7.224c0 2.036-1.648 3.685-3.685 3.685h-19.709c-2.036 0-3.685-1.648-3.685-3.685v-7.224h2.715v7.055c0 0.63 0.509 1.139 1.139 1.139h19.37zM8.994 4.291h10.642v9.527h4.073l-9.382 9.164-9.382-9.164h4.073v-9.527h-0.024z"></path>
</symbol>
<symbol id="icon-comments" viewBox="0 0 32 32">
<path d="M18.884 20.49c1.935-0.815 3.461-1.925 4.58-3.33s1.679-2.934 1.679-4.589c0-1.655-0.56-3.184-1.679-4.589s-2.646-2.515-4.58-3.331c-1.935-0.816-4.039-1.223-6.313-1.223s-4.378 0.408-6.313 1.223c-1.934 0.816-3.461 1.926-4.58 3.33s-1.679 2.934-1.679 4.589c0 1.417 0.423 2.75 1.268 4s2.006 2.304 3.482 3.161c-0.119 0.286-0.241 0.548-0.366 0.786s-0.274 0.467-0.447 0.687c-0.173 0.22-0.306 0.393-0.402 0.518s-0.25 0.301-0.464 0.527c-0.214 0.226-0.351 0.375-0.411 0.446 0-0.012-0.024 0.015-0.071 0.081s-0.075 0.095-0.080 0.090c-0.006-0.006-0.030 0.023-0.071 0.089s-0.063 0.098-0.063 0.098l-0.045 0.089c-0.018 0.036-0.030 0.071-0.036 0.107s-0.009 0.074-0.009 0.116 0.006 0.080 0.018 0.116c0.024 0.155 0.092 0.279 0.205 0.375s0.235 0.143 0.366 0.143h0.054c0.595-0.083 1.107-0.178 1.536-0.286 1.833-0.476 3.488-1.238 4.964-2.286 1.071 0.191 2.119 0.286 3.143 0.286 2.274 0.001 4.378-0.407 6.313-1.222zM8.893 19l-0.786 0.553c-0.333 0.226-0.702 0.459-1.107 0.697l0.625-1.5-1.732-1c-1.143-0.666-2.030-1.452-2.661-2.357s-0.946-1.845-0.946-2.822c0-1.214 0.467-2.351 1.402-3.411s2.193-1.899 3.777-2.518c1.583-0.619 3.286-0.929 5.107-0.929s3.524 0.31 5.107 0.929c1.583 0.619 2.842 1.459 3.777 2.518s1.402 2.196 1.402 3.411c0 1.214-0.467 2.351-1.402 3.411s-2.194 1.899-3.777 2.518c-1.583 0.619-3.286 0.929-5.107 0.929-0.893 0-1.803-0.084-2.732-0.25l-0.946-0.178z"></path>
<path d="M30.732 21.151c0.846-1.244 1.268-2.58 1.268-4.009 0-1.464-0.447-2.834-1.339-4.107s-2.107-2.333-3.643-3.179c0.274 0.893 0.41 1.798 0.41 2.714 0 1.595-0.398 3.107-1.196 4.536s-1.941 2.69-3.429 3.786c-1.381 1-2.953 1.768-4.715 2.304s-3.601 0.804-5.518 0.804c-0.357 0-0.881-0.024-1.571-0.071 2.393 1.571 5.202 2.357 8.429 2.357 1.024 0 2.071-0.095 3.143-0.286 1.476 1.048 3.131 1.81 4.964 2.286 0.429 0.107 0.941 0.202 1.536 0.286 0.143 0.012 0.274-0.030 0.393-0.125s0.197-0.226 0.232-0.393c-0.006-0.072 0-0.111 0.018-0.116s0.015-0.045-0.009-0.116c-0.024-0.072-0.036-0.107-0.036-0.107l-0.045-0.089c-0.012-0.024-0.033-0.056-0.062-0.098s-0.053-0.071-0.072-0.089c-0.017-0.018-0.044-0.048-0.080-0.089s-0.059-0.068-0.072-0.080c-0.059-0.072-0.196-0.22-0.411-0.447s-0.369-0.402-0.464-0.527c-0.095-0.125-0.229-0.298-0.402-0.518s-0.322-0.449-0.447-0.687c-0.125-0.238-0.247-0.5-0.366-0.786 1.476-0.858 2.637-1.908 3.481-3.153z"></path>
</symbol>
</defs>
</svg>
